<svg xmlns="http://www.w3.org/2000/svg" viewBox="0 0 55 32"><defs><style>.cls-1{isolation:isolate;}.cls-2,.cls-4{fill:#005caa;}.cls-2,.cls-3{mix-blend-mode:darken;}</style></defs><g class="cls-1"><g id="Layer_1" data-name="Layer 1"><path class="cls-2" d="M48.93,10.92H44.2l-1.52,2.9h.76l-3.52,7h3.51l.69-1.69h2l0,1.69h3.22ZM45.1,16.78l1-2.49.05,2.49Z"/><path class="cls-2" d="M39.4,20.86,41,17.66a4.22,4.22,0,0,1-3.33.65,1.94,1.94,0,0,1-1.26-2,2.68,2.68,0,0,1,3.1-2.39,3.13,3.13,0,0,1,1.87.82L42.89,12l-2.11-1.1-.26.33a4.19,4.19,0,0,0-3,.22,6.88,6.88,0,0,0-1.35.65,6.36,6.36,0,0,0-1.88,1.79S32.4,16.61,33.64,19c.62,1.34,2,2.1,4.08,2.1A4.8,4.8,0,0,0,39.4,20.86Z"/><path class="cls-2" d="M33.18,11.57a2.7,2.7,0,0,0-1.91-.64H27.15l-1.52,3h.72l-1.77,6.91h4.86a3.66,3.66,0,0,0,2.5-1c1.33-1.32,1.5-3.27,0-4.13C33.79,14.7,34.26,12.68,33.18,11.57ZM30.1,17.84a1,1,0,0,1-.93.39h-1l.42-1.49h1.05A.64.64,0,0,1,30.1,17.84Zm.55-3.33a1.07,1.07,0,0,1-.61.39H29l.27-1.28h1.05A.51.51,0,0,1,30.65,14.51Z"/><g class="cls-3"><path class="cls-2" d="M13.88,20.33h-.22v-2.6c-.09-2.38-.7-3.06-1.64-4a2.59,2.59,0,0,1,1.86-4.5"/><path class="cls-2" d="M13.88,20.33h.22v-2.6c.09-2.38.7-3.06,1.63-4a2.59,2.59,0,0,0-1.85-4.5"/><path class="cls-2" d="M13.53,20.33c.16-2.6-.11-4.41-.89-5.68a3.31,3.31,0,0,0-1-1,2.14,2.14,0,0,0-3.14,1,3.11,3.11,0,0,0-.11,1.3c.1.84.86,1.15,1.59,1.36s3,.47,3.2,3.07Z"/><path class="cls-2" d="M14.23,20.33c-.16-2.6.11-4.41.89-5.68a3.2,3.2,0,0,1,1-1,2.14,2.14,0,0,1,3.14,1,3.11,3.11,0,0,1,.11,1.3c-.1.84-.86,1.15-1.59,1.36s-3,.47-3.2,3.07Z"/><path class="cls-2" d="M13,20.33a2.29,2.29,0,0,0-1.12-2.17,5.22,5.22,0,0,0-1.52-.54c-1.76-.4-1.8-.88-1.8-.88a1.88,1.88,0,0,0,0,2.27,1.86,1.86,0,0,0,2,.53c1.09-.21,1.81-.29,2.11.79Z"/><path class="cls-2" d="M14.75,20.33a2.29,2.29,0,0,1,1.12-2.17,5.12,5.12,0,0,1,1.52-.54c1.76-.4,1.8-.88,1.8-.88a1.88,1.88,0,0,1,0,2.27,1.86,1.86,0,0,1-2,.53c-1.09-.21-1.81-.29-2.11.79Z"/><path class="cls-4" d="M13.88,24.26a15.5,15.5,0,0,1-6.63-1.54l-.08,0,0-.08c-2-4.73-2-9.15,0-13.14l0-.06.06,0a14.44,14.44,0,0,1,13.29,0l.07,0,0,.08c2,4.66,2,9.08,0,13.14l0,.07-.08,0A15.55,15.55,0,0,1,13.88,24.26ZM7.52,22.34a14.65,14.65,0,0,0,12.73,0c1.94-3.89,1.93-8.13,0-12.6a13.94,13.94,0,0,0-12.73,0C5.57,13.56,5.57,17.8,7.52,22.34Z"/><path class="cls-4" d="M10.47,21.84l-.17.66-.14,0a.92.92,0,0,0,0-.16.39.39,0,0,1-.39.06.48.48,0,0,1-.34-.29.66.66,0,0,1,0-.48.78.78,0,0,1,.29-.42.5.5,0,0,1,.43-.06.49.49,0,0,1,.29.21.51.51,0,0,1,.07.35l-.28,0c0-.16,0-.25-.15-.28a.17.17,0,0,0-.2.05.71.71,0,0,0-.16.28.53.53,0,0,0,0,.3.22.22,0,0,0,.16.16.22.22,0,0,0,.16,0,.2.2,0,0,0,.11-.14l-.24-.07L10,21.7Z"/><path class="cls-4" d="M11,22.14l-.11.49-.31-.07.3-1.23.52.11a.56.56,0,0,1,.23.08.28.28,0,0,1,.13.15.34.34,0,0,1,0,.22.33.33,0,0,1-.27.29l.15.6-.34-.06c0-.18-.08-.36-.11-.54Zm.11-.53-.07.32.18,0a.37.37,0,0,0,.13,0l.08,0a.14.14,0,0,0,0-.1.12.12,0,0,0,0-.1s0,0-.06-.06l-.13,0Z"/><path class="cls-4" d="M13,21.65l-.05.79a.84.84,0,0,1-.06.28.37.37,0,0,1-.18.14.84.84,0,0,1-.33,0,.59.59,0,0,1-.3-.09.35.35,0,0,1-.15-.17.72.72,0,0,1,0-.3l.11-.79.31.05-.09.78a.36.36,0,0,0,0,.15.15.15,0,0,0,.06.09.25.25,0,0,0,.13,0,.32.32,0,0,0,.14,0s.07,0,.08-.07a1,1,0,0,0,0-.15l.07-.79Z"/><path class="cls-4" d="M13.46,22.47v.47h-.32l.06-1.27h.48a1.18,1.18,0,0,1,.25,0,.36.36,0,0,1,.15.13.39.39,0,0,1,.08.22.43.43,0,0,1,0,.19.28.28,0,0,1-.1.14.42.42,0,0,1-.13.07.64.64,0,0,1-.21,0Zm0-.23h.19a.19.19,0,0,0,.16,0,.15.15,0,0,0,0-.11.17.17,0,0,0,0-.13.21.21,0,0,0-.15,0h-.19Z"/><path class="cls-4" d="M14.75,21.64l.57-.05a.54.54,0,0,1,.23,0,.46.46,0,0,1,.15.09.29.29,0,0,1,.07.17.28.28,0,0,1-.19.31.34.34,0,0,1,.22.09.4.4,0,0,1,.1.18.35.35,0,0,1-.08.26.52.52,0,0,1-.35.15l-.63.06Zm.31.2,0,.28.23,0a.21.21,0,0,0,.15-.07.44.44,0,0,0,0-.1.2.2,0,0,0,0-.08.09.09,0,0,0-.06,0,.23.23,0,0,0-.12,0Zm0,.5,0,.31.24,0a.25.25,0,0,0,.17-.07.12.12,0,0,0,0-.12.1.1,0,0,0-.06-.09.19.19,0,0,0-.16,0Z"/><path class="cls-4" d="M17,21.76l-.3.09c0-.17-.13-.25-.26-.22s-.2.18-.15.45a.53.53,0,0,0,.13.31.22.22,0,0,0,.19.05c.13,0,.19-.12.18-.29l.29,0a.48.48,0,0,1-.09.38.56.56,0,0,1-.33.2.6.6,0,0,1-.46-.09.66.66,0,0,1-.24-.45.79.79,0,0,1,.07-.49.54.54,0,0,1,.37-.26A.49.49,0,0,1,17,21.76Z"/><path class="cls-4" d="M17.64,21.1q.38.55.78,1.08l-.33.11-.15-.23-.42.13a2.44,2.44,0,0,1,0,.27l-.27.07c0-.45.07-.89.08-1.34Zm-.11.84.27-.08-.26-.39C17.54,21.63,17.54,21.78,17.53,21.94Z"/></g></g></g></svg>