<svg id="Layer_1" data-name="Layer 1" xmlns="http://www.w3.org/2000/svg" viewBox="0 0 55 32"><defs><style>.cls-1{fill:#108ee9;}.cls-2{fill:#fff;}</style></defs><circle class="cls-1" cx="12.06" cy="16.78" r="6.24"/><path class="cls-2" d="M15.69,18.49V15a.25.25,0,0,0-.06-.16c-.55-.6-1.82-.82-3.87.14a3.27,3.27,0,0,1-3.19,0,.09.09,0,0,0-.14.07v3.49a.21.21,0,0,0,.07.16c.24.25,1.24,1,3.61,0a4,4,0,0,1,3.45-.15A.09.09,0,0,0,15.69,18.49Z"/><path class="cls-1" d="M22.85,13.59H20.64V14.9h0v3.77h0V20h2.21A3.18,3.18,0,0,0,26,16.78h0A3.18,3.18,0,0,0,22.85,13.59Zm1.89,3.2a1.89,1.89,0,0,1-1.89,1.88h-.91V14.9h.91a1.89,1.89,0,0,1,1.89,1.89Z"/><path class="cls-1" d="M33.71,16.28a2.69,2.69,0,1,0-5.37,0V20h1.31V18.58h2.77V20h1.29V18.58h0v-1.3h0Zm-4.06,1v-1a1.39,1.39,0,0,1,2.77,0v1Z"/><path class="cls-1" d="M49.19,17.28h0v-1a2.69,2.69,0,0,0-2.68-2.69h0a2.69,2.69,0,0,0-2.69,2.69V20h1.31V18.58h2.77V20h1.29V18.58h0Zm-4.07,0v-1A1.38,1.38,0,0,1,46.5,14.9h0a1.38,1.38,0,0,1,1.39,1.38v1Z"/><path class="cls-1" d="M38.78,13.59a2.69,2.69,0,0,0-2.69,2.69V20H37.4V16.28a1.39,1.39,0,0,1,2.77,0V20h1.29V16.28A2.69,2.69,0,0,0,38.78,13.59Z"/></svg>