<svg id="Layer_1" data-name="Layer 1" xmlns="http://www.w3.org/2000/svg" viewBox="0 0 55 32"><defs><style>.cls-1{fill:#078bf3;}</style></defs><polygon class="cls-1" points="30.91 10.81 30.91 17.11 26.64 17.11 30.91 21.14 27.25 21.14 23.01 17.11 23.01 21.14 20.62 21.14 20.62 14.72 28.17 14.72 28.17 13.2 20.62 13.2 20.62 10.81 30.91 10.81"/><rect class="cls-1" x="31.98" y="10.81" width="2.51" height="10.33"/><polygon class="cls-1" points="45.78 13.36 45.78 10.81 38.97 10.81 35.6 10.81 35.6 13.36 35.6 14.67 35.6 17.22 38.97 17.22 42.41 17.22 42.41 18.54 35.6 18.54 35.6 21.08 42.41 21.08 45.78 21.08 45.78 18.54 45.78 17.22 45.78 14.67 42.41 14.67 38.97 14.67 38.97 13.36 45.78 13.36"/><path class="cls-1" d="M46.83,18.55v3.88a.55.55,0,0,1-.54.55H42.37v.66h4.52A.61.61,0,0,0,47.5,23V18.55Z"/><path class="cls-1" d="M8.17,13.39V9.49A.54.54,0,0,1,8.71,9h3.92V8.28H8.11a.61.61,0,0,0-.61.62v4.49Z"/><path class="cls-1" d="M15.66,18.65v2.46H9.8a.61.61,0,0,1-.61-.62V11.42a.62.62,0,0,1,.63-.61h2v7.84Z"/><path class="cls-1" d="M19.54,11.42a.61.61,0,0,0-.61-.61H13.06v2.58H17v3.86h2.58Z"/><path class="cls-1" d="M13.08,14.63v2.62h2.58V14.63Zm1.81,1.83h-1V15.4h1Z"/><rect class="cls-1" x="16.96" y="18.52" width="2.58" height="5.2"/></svg>